<?xml version="1.0" encoding="utf-8"?>
<!-- Generator: Adobe Illustrator 18.1.1, SVG Export Plug-In . SVG Version: 6.00 Build 0)  -->
<svg version="1.1" id="Layer_1" xmlns="http://www.w3.org/2000/svg" xmlns:xlink="http://www.w3.org/1999/xlink" x="0px" y="0px"
	 viewBox="0 0 200 200" enable-background="new 0 0 200 200" xml:space="preserve">
<g>
	<path fill="#343434" d="M32,172h-3.8c-0.3,0-0.5,0.1-0.7,0.3c-2.2,3.3-6,5.4-10.2,5.4c-6.8,0-12.4-5.5-12.4-12.4
		s5.5-12.4,12.4-12.4c4.3,0,8,2.2,10.2,5.4c0.2,0.2,0.4,0.3,0.7,0.3H32c0.5,0,0.8-0.4,0.8-0.8c0-0.1,0-0.3-0.1-0.4
		c-2.8-5.6-8.7-9.5-15.4-9.5c-9.6,0-17.3,7.7-17.3,17.3c0,9.6,7.7,17.3,17.3,17.3c6.8,0,12.6-3.9,15.4-9.5c0.1-0.1,0.1-0.2,0.1-0.4
		C32.8,172.4,32.5,172,32,172z M43.5,142.4c0,1.8-1.5,3.3-3.3,3.3c-1.8,0-3.3-1.5-3.3-3.3s1.5-3.3,3.3-3.3
		C42.1,139.1,43.5,140.6,43.5,142.4z M42.7,181.1V149h-4.9v32.1c0,0.5,0.4,0.8,0.8,0.8h3.3C42.4,181.9,42.7,181.5,42.7,181.1z
		 M64.1,148.2c-5,0.2-9,2.6-11.5,6.3v-4.6c0-0.5-0.4-0.8-0.8-0.8h-3.3c-0.5,0-0.8,0.4-0.8,0.8l0,0v31.3c0,0.5,0.4,0.8,0.8,0.8h3.3
		c0.5,0,0.8-0.4,0.8-0.8v-15.7c0-6.5,5.1-11.9,11.5-12.3c0.5,0,0.8-0.4,0.8-0.8V149C65,148.5,64.6,148.2,64.1,148.2z M97,172h-3.8
		c-0.3,0-0.5,0.1-0.7,0.3c-2.2,3.3-6,5.4-10.2,5.4c-6.8,0-12.4-5.5-12.4-12.4s5.5-12.4,12.4-12.4c4.3,0,8,2.2,10.2,5.4
		c0.2,0.2,0.4,0.3,0.7,0.3H97c0.5,0,0.8-0.4,0.8-0.8c0-0.1,0-0.3-0.1-0.4c-2.8-5.6-8.7-9.5-15.4-9.5c-9.6,0-17.3,7.7-17.3,17.3
		c0,9.6,7.7,17.3,17.3,17.3c6.8,0,12.6-3.9,15.4-9.5c0.1-0.1,0.1-0.2,0.1-0.4C97.8,172.4,97.4,172,97,172z M106.9,138.3h-3.3
		c-0.5,0-0.8,0.4-0.8,0.8v42c0,0.5,0.4,0.8,0.8,0.8h3.3c0.5,0,0.8-0.4,0.8-0.8v-42C107.7,138.6,107.3,138.3,106.9,138.3z
		 M129.9,148.1c-9.6,0-17.3,7.7-17.3,17.3c0,9.6,7.7,17.3,17.3,17.3c6.8,0,12.6-3.9,15.4-9.5c0.1-0.1,0.1-0.2,0.1-0.4
		c0-0.5-0.4-0.8-0.8-0.8h-3.8c-0.3,0-0.5,0.1-0.7,0.3c-2.2,3.3-6,5.4-10.2,5.4c-6.3,0-11.4-4.7-12.2-10.7h28.7
		c0.4,0,0.8-0.3,0.8-0.8c0-0.3,0-0.6,0-0.9C147.2,155.9,139.5,148.1,129.9,148.1z M118,162.2c1.4-5.2,6.2-9.1,11.9-9.1
		s10.5,3.8,11.9,9.1H118z M195.1,137.4c-2.7,0-4.9,2.2-4.9,4.9c0,2.7,2.2,4.9,4.9,4.9c2.7,0,4.9-2.2,4.9-4.9
		C200,139.7,197.8,137.4,195.1,137.4z M199.2,149v32.1c0,0.5-0.4,0.8-0.8,0.8h-6.6c-0.5,0-0.8-0.4-0.8-0.8V149H199.2z M169.5,182.7
		c8.1,0,14.8-5.5,16.8-13c0-0.1,0-0.1,0-0.2c0-0.5-0.4-0.8-0.8-0.8h-7c-0.3,0-0.6,0.2-0.7,0.5l0,0c-1.4,3.1-4.6,5.3-8.2,5.3
		c-5,0-9.1-4.1-9.1-9.1c0-5,4.1-9.1,9.1-9.1c3.7,0,6.8,2.2,8.2,5.3l0,0c0.1,0.3,0.4,0.5,0.7,0.5h7c0.5,0,0.8-0.4,0.8-0.8
		c0-0.1,0-0.1,0-0.2c-1.9-7.5-8.7-13-16.8-13c-9.6,0-17.3,7.7-17.3,17.3C152.2,175,159.9,182.7,169.5,182.7z"/>
	<path fill="#343434" d="M86.7,69.9c0-6.9,5.6-12.5,12.5-12.5c6.9,0,12.5,5.6,12.5,12.5c0,6.9-5.6,12.5-12.5,12.5
		C92.3,82.5,86.7,76.8,86.7,69.9z M99.2,17.3c-24.6,0-45.2,16.8-51,39.6c0,0.2-0.1,0.3-0.1,0.5c0,1.4,1.1,2.5,2.5,2.5h21.2
		c1,0,1.9-0.6,2.3-1.5l0,0c4.4-9.5,13.9-16.1,25.1-16.1c15.2,0,27.6,12.4,27.6,27.6c0,15.2-12.4,27.6-27.6,27.6
		c-11.1,0-20.7-6.6-25.1-16.1l0,0c-0.4-0.9-1.3-1.5-2.3-1.5H50.6c-1.4,0-2.5,1.1-2.5,2.5c0,0.2,0,0.3,0.1,0.5
		c5.8,22.8,26.4,39.6,51,39.6c29.1,0,52.7-23.6,52.7-52.7C151.9,40.8,128.3,17.3,99.2,17.3z"/>
</g>
</svg>
