<?xml version="1.0" encoding="utf-8"?>
<!-- Generator: Adobe Illustrator 19.2.1, SVG Export Plug-In . SVG Version: 6.00 Build 0)  -->
<svg version="1.1" id="Layer_1" xmlns="http://www.w3.org/2000/svg" xmlns:xlink="http://www.w3.org/1999/xlink" x="0px" y="0px"
	 viewBox="0 0 1000 1000" enable-background="new 0 0 1000 1000" xml:space="preserve">
<rect x="150" y="150" display="none" fill="#FFFFFF" width="700" height="700"/>
<g>
	<path fill="#FFFFFF" d="M173.7,845.8h-18.3c-1.3,0-2.4,0.6-3.1,1.6c-10.7,15.8-28.7,26.1-49.1,26.1c-32.8,0-59.3-26.6-59.3-59.3
		s26.6-59.3,59.3-59.3c20.5,0,38.5,10.4,49.1,26.1c0.7,0.9,1.9,1.6,3.1,1.6h18.3c2.2,0,4-1.8,4-4c0-0.6-0.2-1.2-0.4-1.8
		c-13.7-27.1-41.7-45.7-74.1-45.7c-45.9,0-83,37.2-83,83c0,45.9,37.2,83,83,83c32.4,0,60.5-18.6,74.1-45.7c0.3-0.5,0.4-1.1,0.4-1.8
		C177.6,847.5,175.8,845.8,173.7,845.8z M229,703.4c0,8.7-7.1,15.8-15.8,15.8c-8.7,0-15.8-7.1-15.8-15.8c0-8.7,7.1-15.8,15.8-15.8
		C221.9,687.6,229,694.7,229,703.4z M225.1,889.3V735.1h-23.7v154.2c0,2.2,1.8,4,4,4h15.8C223.3,893.2,225.1,891.4,225.1,889.3z
		 M327.9,731.2c-23.9,1.1-43,12.6-55.4,30V739c0-2.2-1.8-3.9-4-3.9h-15.8c-2.2,0-4,1.8-4,3.9l0,0v150.2c0,2.2,1.8,4,4,4h15.8
		c2.2,0,4-1.8,4-4v-75.1c0-31.4,24.4-57.1,55.3-59.2c2.2,0,4-1.8,4-4v-15.8C331.8,733,330.1,731.3,327.9,731.2z M485.5,845.8h-18.4
		c-1.3,0-2.4,0.6-3.1,1.6c-10.7,15.8-28.7,26.1-49.1,26.1c-32.8,0-59.3-26.6-59.3-59.3s26.5-59.3,59.3-59.3
		c20.4,0,38.5,10.4,49.1,26.1c0.7,0.9,1.9,1.6,3.1,1.6h18.4c2.2,0,4-1.8,4-4c0-0.6-0.2-1.2-0.4-1.8c-13.7-27.1-41.7-45.7-74.1-45.7
		c-45.9,0-83,37.2-83,83c0,45.9,37.2,83,83,83c32.4,0,60.5-18.6,74.1-45.7c0.3-0.5,0.4-1.1,0.4-1.8
		C489.4,847.5,487.6,845.8,485.5,845.8z M532.9,683.7h-15.8c-2.2,0-4,1.8-4,4v201.6c0,2.2,1.8,4,4,4h15.8c2.2,0,4-1.8,4-4V687.6
		C536.9,685.4,535.1,683.7,532.9,683.7z M643.6,731.1c-45.9,0-83,37.2-83,83c0,45.9,37.2,83,83,83c32.4,0,60.5-18.6,74.1-45.7
		c0.3-0.5,0.4-1.1,0.4-1.8c0-2.2-1.8-4-4-4h-18.3c-1.3,0-2.5,0.6-3.2,1.6c-10.7,15.7-28.7,26-49.1,26c-30.1,0-54.9-22.4-58.8-51.4
		h137.7c2.1,0,3.8-1.7,3.9-3.8c0.1-1.4,0.1-2.8,0.1-4.2C726.6,768.3,689.5,731.1,643.6,731.1z M586.4,798.3
		c6.9-25.1,29.9-43.5,57.2-43.5c27.3,0,50.2,18.4,57.2,43.5H586.4z M956.3,679.7c-13.1,0-23.7,10.6-23.7,23.7
		c0,13.1,10.6,23.7,23.7,23.7c13.1,0,23.7-10.6,23.7-23.7C980,690.3,969.4,679.7,956.3,679.7z M976,735.1v154.2c0,2.2-1.8,4-3.9,4
		h-31.6c-2.2,0-4-1.8-4-4V735.1H976z M833.4,897.2c38.8,0,71.3-26.6,80.4-62.5c0.1-0.3,0.1-0.5,0.1-0.8c0-2.2-1.8-4-3.9-4h-33.5
		c-1.6,0-3,0.9-3.6,2.3l0,0c-6.9,15-22,25.4-39.5,25.4c-24,0-43.5-19.5-43.5-43.5c0-24,19.5-43.5,43.5-43.5
		c17.5,0,32.6,10.4,39.5,25.4l0,0c0.6,1.4,2,2.3,3.6,2.3H910c2.2,0,3.9-1.8,3.9-4c0-0.3,0-0.5-0.1-0.8
		c-9.2-35.9-41.7-62.5-80.4-62.5c-45.8,0-83,37.2-83,83C750.3,860,787.5,897.2,833.4,897.2z"/>
	<path fill="#FFFFFF" d="M436,355.6c0-33.2,26.9-60.2,60.2-60.2c33.2,0,60.2,26.9,60.2,60.2c0,33.2-26.9,60.2-60.2,60.2
		C463,415.8,436,388.8,436,355.6z M496.2,102.8c-118,0-217,80.8-244.9,190.1c-0.2,0.8-0.3,1.6-0.3,2.5c0,6.6,5.4,12,12,12H365
		c4.9,0,9-2.9,10.9-7l0,0c20.9-45.6,66.9-77.2,120.3-77.2c73.1,0,132.4,59.3,132.4,132.4c0,73.1-59.3,132.4-132.4,132.4
		c-53.4,0-99.4-31.7-120.3-77.2l0,0c-1.9-4.1-6.1-7-10.9-7H263.1c-6.6,0-12,5.4-12,12c0,0.8,0.1,1.6,0.3,2.4
		c27.9,109.3,126.9,190.2,244.9,190.2c139.6,0,252.7-113.2,252.7-252.7C749,216,635.8,102.8,496.2,102.8z"/>
</g>
</svg>
